<svg viewBox="-1 -1 42 43" xmlns="http://www.w3.org/2000/svg" fill="white">
    <path d="M6.48 28.234c2.77 4.727 7.91 7.903 13.774 7.887 8.77-.027 15.887-7.18 15.863-15.953-.023-8.773-7.18-15.89-15.953-15.867-8.77.023-15.887 7.183-15.863 15.953a16.08 16.08 0 0 0 .32 3.117c.031.129.164.2.29.168l2.214-.55a.242.242 0 0 0 .184-.29h.003a13.026 13.026 0 0 1-.238-2.453c-.02-7.242 5.856-13.152 13.098-13.172 7.246-.02 13.156 5.86 13.172 13.102.023 7.242-5.856 13.152-13.098 13.172-4.797.011-9.008-2.563-11.308-6.407a.254.254 0 0 0-.329-.109l-2.027 1.07a.246.246 0 0 0-.102.332"/>
    <path d="M28.582 23.648l2.02 1.082c.12.063.28.028.328-.101a11.38 11.38 0 0 0 .883-4.32c.054-6.399-5.11-11.645-11.508-11.7h-.098c-6.344 0-11.547 5.16-11.602 11.504-.05 6.399 5.11 11.649 11.508 11.7l.098.003c3.031 0 5.797-1.18 7.871-3.101.102-.09.121-.246.027-.348l-1.722-1.554c-.102-.09-.254-.07-.344.015l-.004-.004a8.77 8.77 0 0 1-5.828 2.219h-.074c-4.871-.043-8.797-4.035-8.758-8.906.039-4.828 4-8.758 8.828-8.758h.078c4.867.043 8.797 4.039 8.754 8.906a8.775 8.775 0 0 1-.566 3.031.257.257 0 0 0 .109.332"/>
    <path d="M31.895 3.727c-.11-.075-.258-.055-.332.058L30.265 5.66c-.075.11-.063.262.047.34 4.44 3.168 7.347 8.355 7.343 14.215 0 9.617-7.824 17.437-17.441 17.437-9.617 0-17.442-7.824-17.442-17.445 0-9.613 7.825-17.437 17.446-17.434a17.345 17.345 0 0 1 5.96 1.051.245.245 0 0 0 .31-.14l.816-2.141a.241.241 0 0 0-.133-.305A20.034 20.034 0 0 0 20.219 0C9.07-.004.004 9.063 0 20.21c0 11.145 9.07 20.216 20.215 20.216 11.144 0 20.215-9.067 20.215-20.211 0-6.8-3.375-12.824-8.535-16.488"/>
</svg>