<svg viewBox="-5 0 85 85" fill="none" xmlns="http://www.w3.org/2000/svg">
    <path
        d="M15.5098 70.7615C15.5098 75.2468 12.0378 78.8829 7.75489 78.8829C3.47198 78.8829 0 75.2468 0 70.7615C0 66.2762 3.47198 62.6401 7.75489 62.6401C12.0378 62.6401 15.5098 66.2762 15.5098 70.7615Z"
        fill="white" />
    <path
        d="M28.7573 16.6189C28.7573 21.1042 25.2853 24.7403 21.0024 24.7403C16.7195 24.7403 13.2475 21.1042 13.2475 16.6189C13.2475 12.1335 16.7195 8.49744 21.0024 8.49744C25.2853 8.49744 28.7573 12.1335 28.7573 16.6189Z"
        fill="white" />
    <path
        d="M45.5596 46.3974C45.5596 50.8827 42.0877 54.5188 37.8048 54.5188C33.5218 54.5188 30.0499 50.8827 30.0499 46.3974C30.0499 41.912 33.5218 38.2759 37.8048 38.2759C42.0877 38.2759 45.5596 41.912 45.5596 46.3974Z"
        fill="white" />
    <path
        d="M69.794 25.7552C69.794 30.2405 66.322 33.8766 62.0391 33.8766C57.7562 33.8766 54.2842 30.2405 54.2842 25.7552C54.2842 21.2699 57.7562 17.6338 62.0391 17.6338C66.322 17.6338 69.794 21.2699 69.794 25.7552Z"
        fill="white" />
    <path
        d="M75.9329 70.7615C75.9329 75.2468 72.4609 78.8829 68.178 78.8829C63.8951 78.8829 60.4231 75.2468 60.4231 70.7615C60.4231 66.2762 63.8951 62.6401 68.178 62.6401C72.4609 62.6401 75.9329 66.2762 75.9329 70.7615Z"
        fill="white" />
    <path fill-rule="evenodd" clip-rule="evenodd"
        d="M23.8184 16.1966L10.2474 71.1854L4.61627 69.6612L18.1873 14.6724L23.8184 16.1966Z"
        fill="white" />
    <path fill-rule="evenodd" clip-rule="evenodd"
        d="M18.5018 17.1578L35.9503 47.9515L40.9521 44.8432L23.5037 14.0494L18.5018 17.1578Z"
        fill="white" />
    <path fill-rule="evenodd" clip-rule="evenodd"
        d="M63.9041 28.0925L40.3163 48.7344L36.5869 44.0604L60.1746 23.4184L63.9041 28.0925Z"
        fill="white" />
    <path fill-rule="evenodd" clip-rule="evenodd"
        d="M59.1598 26.1861L65.2991 71.1924L71.0568 70.3309L64.9175 25.3247L59.1598 26.1861Z"
        fill="white" />
</svg>