<svg width="500" height="500" viewBox="0 0 500 500" fill="none" xmlns="http://www.w3.org/2000/svg">
<rect width="500" height="500" rx="250" fill="white"/>
<circle cx="251.129" cy="249.019" r="92.9007" fill="#FFFAFA"/>
<path d="M367.988 249.973C367.988 309.963 315.836 358.595 251.504 358.595C187.172 358.595 135.021 309.963 135.021 249.973C135.021 189.982 187.172 141.35 251.504 141.35C315.836 141.35 367.988 189.982 367.988 249.973Z" fill="#FFFAFA"/>
<path d="M303.777 157.392C303.777 168.633 296.626 177.745 287.806 177.745C278.985 177.745 271.834 168.633 271.834 157.392C271.834 146.151 278.985 137.039 287.806 137.039C296.626 137.039 303.777 146.151 303.777 157.392Z" fill="#121212"/>
<path d="M201.743 178.916C195.33 177.87 195.33 171.023 201.743 169.978L224.821 166.214L247.899 162.451C251.709 161.83 255.311 164.002 255.311 166.921V181.973C255.311 184.891 251.709 187.063 247.899 186.442L201.743 178.916Z" fill="#E97000"/>
<path d="M238.789 157.218L206.225 162.28C205.911 160.715 205.745 159.077 205.745 157.392C205.745 146.151 213.142 137.039 222.267 137.039C231.345 137.039 238.713 146.057 238.789 157.218Z" fill="#121212"/>
<path d="M237.863 164.128L208.624 168.876C211.6 174.231 216.601 177.745 222.267 177.745C229.476 177.745 235.606 172.058 237.863 164.128Z" fill="#E97000"/>
<path fill-rule="evenodd" clip-rule="evenodd" d="M247.175 211.432C239.969 210.012 234.217 205.269 231.078 201.468L237.555 196.448C239.945 199.343 244.146 202.635 248.829 203.558C253.05 204.39 258.457 203.468 264.254 196.448L270.731 201.468C263.258 210.518 254.842 212.944 247.175 211.432Z" fill="#121212"/>
<path d="M236.623 63.9051C227.964 65.0212 215.208 68.7416 205.99 72.6481C193.606 78.0427 185.226 83.9023 174.705 94.5055C159.528 109.759 150.682 125.85 146.586 145.568C143.885 158.497 144.63 178.866 148.075 190.771C151.148 201.188 155.803 211.048 161.204 218.86L165.487 224.906L162.88 226.766C161.39 227.882 155.71 233.277 150.217 238.858L140.161 248.903L135.971 245.554C133.736 243.694 131.874 241.741 131.874 241.09C131.874 240.532 133.178 235.416 134.668 229.836C136.157 224.162 137.461 218.395 137.461 217C137.461 213.094 132.898 208.908 128.708 208.908C123.681 208.908 120.98 211.885 118.746 220.069C117.722 223.883 116.697 227.231 116.511 227.417C116.232 227.603 112.88 224.813 108.876 221.279C104.872 217.744 100.403 213.931 98.9133 212.815C92.9543 208.257 84.3882 212.071 84.3882 219.232C84.3882 223.697 84.2951 223.604 108.131 244.717C118.373 253.832 127.498 261.924 128.429 262.854C130.105 264.435 130.012 264.714 126.753 271.225C122.098 280.433 117.349 295.222 115.952 304.616C114.276 316.614 115.301 335.588 118.373 347.029C123.308 365.724 133.085 382.28 147.61 396.882C165.859 415.019 187.461 426.273 213.625 431.203C245.468 437.156 271.26 435.947 298.541 427.297C338.206 414.647 366.697 387.488 377.964 351.679C381.688 339.867 382.619 331.496 382.06 315.684C381.595 299.872 380.012 292.525 374.425 278.852C372.563 274.388 370.887 270.109 370.608 269.365C370.329 268.435 376.939 262.854 390.813 252.158C417.163 231.975 417.722 231.51 417.722 227.138C417.722 222.395 413.625 218.209 409.062 218.209C406.455 218.209 404.034 219.511 397.144 224.72C390.999 229.371 388.299 230.952 387.833 230.115C387.461 229.464 386.902 226.208 386.53 222.953C385.971 218.116 385.319 216.349 383.271 214.303C379.546 210.675 374.798 210.675 371.073 214.396C367.815 217.744 367.722 220.069 370.142 234.3L371.818 244.345L366.418 248.531C363.532 250.763 360.738 252.623 360.273 252.623C359.9 252.623 358.317 250.856 356.735 248.81C355.245 246.67 349.658 240.904 344.351 235.881L334.761 226.766L338.578 221.744C352.731 203.235 359.621 174.866 355.897 150.591C349.379 107.806 315.673 73.5782 272.098 65.2072C262.6 63.347 245.189 62.696 236.623 63.9051ZM262.694 85.2045C278.615 87.5297 296.492 96.0867 308.876 107.434C328.802 125.571 338.113 149.01 334.947 173.006C332.898 188.074 328.15 199.328 317.628 214.117C314.37 218.674 313.904 219.976 313.625 225.65C313.066 234.393 315.301 238.951 323.215 245.182C339.882 258.39 351.8 276.434 358.317 298.198C360.645 306.011 361.576 326.008 360.087 335.03C356.828 353.26 347.982 368.979 332.619 383.582C317.256 398.184 298.913 406.927 274.798 411.299C261.949 413.624 235.506 413.624 222.656 411.299C187.833 405.067 161.018 387.116 146.399 360.422C139.602 347.959 136.53 335.495 136.53 320.056C136.53 304.058 139.416 292.618 147.144 278.108C153.01 267.133 158.131 260.901 171.446 248.345C180.105 240.16 183.457 236.346 184.854 232.998C188.392 224.813 187.088 218.209 179.919 208.257C175.543 202.118 170.701 191.608 168.56 183.33C167.256 178.494 166.884 173.378 166.884 163.333C166.884 151.149 167.07 149.103 169.398 142.406C180.664 108.922 213.811 85.2045 250.124 84.4604C253.476 84.3674 259.155 84.7394 262.694 85.2045Z" fill="#121212"/>
<path d="M263.6 276.658C263.6 286.149 255.897 293.842 246.395 293.842C236.894 293.842 229.191 286.149 229.191 276.658C229.191 267.168 236.894 259.475 246.395 259.475C255.897 259.475 263.6 267.168 263.6 276.658Z" fill="#121212"/>
<path d="M263.6 332.506C263.6 341.997 255.897 349.69 246.395 349.69C236.894 349.69 229.191 341.997 229.191 332.506C229.191 323.016 236.894 315.322 246.395 315.322C255.897 315.322 263.6 323.016 263.6 332.506Z" fill="#121212"/>
</svg>
