<svg width="236" height="267" viewBox="0 0 236 267" fill="none" xmlns="http://www.w3.org/2000/svg">
<path d="M23.4724 175.5L0 188.695V220.68L23.4724 234.388L49.1222 220.68V188.695L46.8321 187.324L23.4724 175.5Z" fill="#2F1046"/>
<path d="M23.4724 64.4101L0 81V114L23.4724 128.38L49.1222 113.758L51.4124 80.8595L48.2062 79.0318L23.4724 64.4101Z" fill="#2F1046"/>
<path d="M102.254 257.234V243.069L117.827 251.751H121.492L137.981 242.612V257.234L120.29 267L102.254 257.234Z" fill="#2F1046"/>
<path d="M211.266 64.4101L183.784 80.4026V112.388L210.35 128.837L236 112.388V81.7734V79.0318L211.266 64.4101Z" fill="#2F1046"/>
<path d="M210.35 169.504L183.784 185.496V217.481L211.266 233.474L236 217.481V188.5V184.126L210.35 169.504Z" fill="#2F1046"/>
<path d="M80.2685 21.0019V67.1517L119.659 44.3052L160.424 67.6086V21.4588L147.355 15L120.29 0L80.2685 21.0019Z" fill="#2F1046"/>
<path d="M119.659 96.8521L28.9688 96.3951L119.659 44.3052V96.8521Z" fill="#339BB1"/>
<path d="M119.659 96.8521L210.35 96.3951L119.659 44.3052V96.8521Z" fill="#408EAD"/>
<path d="M58.2829 202.403L28.9688 96.3951L119.659 96.8501L58.2829 202.403Z" fill="#19AECC"/>
<path d="M181.036 202.403L210.35 96.3951L119.659 96.8501L181.036 202.403Z" fill="#339BB2"/>
<path d="M58.2829 202.403L119.659 96.8521L181.036 202.403H58.2829Z" fill="#57B7CF"/>
<path d="M210.35 202.403H181.036L210.35 96.3951V202.403Z" fill="#26546C"/>
<path d="M28.9688 201.489V96.3951L58.2829 202.403L28.9688 201.489Z" fill="#1D9DC9"/>
<path d="M58.2829 202.403L28.9688 201.489L117.827 252.208L58.2829 202.403Z" fill="#339AB1"/>
<path d="M121.492 252.665H118.285L58.2829 202.403H181.036L121.492 252.665Z" fill="#20AAE1"/>
<path d="M181.036 202.403L121.492 252.665L210.35 202.403H181.036Z" fill="#2C647B"/>
</svg>
