<svg version="1.1" id="Layer_1" xmlns:x="ns_extend;" xmlns:i="ns_ai;" xmlns:graph="ns_graphs;" xmlns="http://www.w3.org/2000/svg" xmlns:xlink="http://www.w3.org/1999/xlink" x="0px" y="0px" viewBox="0 0 80 80" style="enable-background:new 0 0 80 80;" xml:space="preserve">
 <metadata>
  <sfw xmlns="ns_sfw;">
   <slices>
   </slices>
   <sliceSourceBounds bottomLeftOrigin="true" height="80" width="80" x="2.6" y="-264.6">
   </sliceSourceBounds>
  </sfw>
 </metadata>
 <g stroke="#FFFFFF" fill="#FFFFFF">
  <g>
   <path d="M12.8,55.9c5.5,9.4,15.7,15.6,27.3,15.6c17.4,0,31.5-14.2,31.4-31.6c0-17.4-14.2-31.5-31.6-31.4
			C22.6,8.6,8.5,22.7,8.5,40.1c0,2.1,0.2,4.2,0.6,6.2c0.1,0.3,0.3,0.4,0.6,0.3l4.4-1.1c0.3-0.1,0.4-0.3,0.4-0.6h0
			c-0.3-1.6-0.5-3.2-0.5-4.9C14,25.7,25.6,14,39.9,14C54.3,14,66,25.6,66,39.9C66,54.3,54.4,66,40.1,66c-9.5,0-17.8-5.1-22.4-12.7
			c-0.1-0.2-0.4-0.3-0.6-0.2l-4,2.1C12.8,55.4,12.7,55.7,12.8,55.9">
   </path>
   <path d="M56.6,46.8l4,2.1c0.2,0.1,0.6,0,0.7-0.2c1.1-2.6,1.7-5.5,1.7-8.6C63.1,27.5,52.9,17.2,40.2,17H40
			c-12.6,0-22.9,10.2-23,22.8C16.9,52.5,27.1,62.9,39.8,63l0.2,0c6,0,11.5-2.3,15.6-6.1c0.2-0.2,0.2-0.5,0.1-0.7l-3.4-3.1
			c-0.2-0.2-0.5-0.1-0.7,0l0,0c-3.1,2.7-7.1,4.4-11.5,4.4l-0.1,0c-9.6-0.1-17.4-8-17.3-17.6c0.1-9.6,7.9-17.3,17.5-17.3h0.2
			c9.6,0.1,17.4,8,17.3,17.6c0,2.1-0.4,4.1-1.1,6C56.3,46.4,56.3,46.7,56.6,46.8">
   </path>
   <path d="M63.1,7.4c-0.2-0.1-0.5-0.1-0.7,0.1l-2.6,3.7c-0.1,0.2-0.1,0.5,0.1,0.7c8.8,6.3,14.5,16.5,14.5,28.1
			c0,19-15.5,34.5-34.5,34.5C21,74.5,5.5,59,5.5,40C5.5,21,21,5.5,40,5.5c4.1,0,8.1,0.7,11.8,2.1v0c0.2,0.1,0.5,0,0.6-0.3L54,3.1
			c0.1-0.2,0-0.5-0.3-0.6C49.5,0.9,44.9,0,40,0C18,0,0,17.9,0,40c0,22.1,18,40,40,40c22.1,0,40-17.9,40-40
			C80,26.6,73.4,14.6,63.1,7.4">
   </path>
  </g>
 </g>
</svg>