<svg width="1920" height="1920" viewBox="0 0 1920 1920" fill="none" xmlns="http://www.w3.org/2000/svg">
<path d="M1786.71 1196.4V1246.67C1786.71 1257.54 1785.19 1268.35 1782.21 1278.79L1752.55 1382.61C1742.95 1416.21 1768.18 1449.66 1803.12 1449.66C1823.94 1449.66 1842.79 1437.39 1851.22 1418.36L1910.58 1284.33C1916.79 1270.3 1920 1255.12 1920 1239.78V1196.4C1920 1159.59 1890.16 1129.75 1853.35 1129.75C1816.55 1129.75 1786.71 1159.59 1786.71 1196.4Z" fill="white"/>
<path d="M1848.81 817.575C1885.62 817.575 1915.46 847.414 1915.46 884.222V884.222C1915.46 921.03 1885.62 950.869 1848.81 950.869V950.869C1812 950.869 1782.16 921.03 1782.16 884.222V884.222C1782.16 847.414 1812 817.575 1848.81 817.575V817.575Z" fill="white"/>
<path d="M1714.84 1014.71C1714.84 1055.19 1677.7 1080.22 1643.95 1102.6C1642.63 1103.47 1641.38 1104.39 1640.2 1105.35C1626.87 1116.01 1620.2 1138.67 1620.2 1173.33V1478.57C1620.2 1538.11 1609.1 1579.87 1586.88 1603.86C1564.66 1628.75 1527.34 1641.19 1474.91 1641.19H1434.93C1409.16 1641.19 1388.27 1620.3 1388.27 1594.53V1594.53C1388.27 1568.77 1409.16 1547.88 1434.93 1547.88H1456.25C1477.58 1547.88 1492.69 1544.33 1501.57 1537.22C1511.35 1531 1516.23 1518.11 1516.23 1498.56V1173.33C1516.23 1128.89 1526.9 1092.46 1548.23 1064.02V1064.02C1557.86 1051.69 1558.57 978.478 1548.87 966.203C1548.65 965.932 1548.44 965.66 1548.23 965.387C1526.9 936.951 1516.23 900.517 1516.23 856.086V530.849C1516.23 511.299 1511.35 498.414 1501.57 492.194C1492.69 485.085 1477.58 481.53 1456.25 481.53H1434.93C1409.16 481.53 1388.27 460.643 1388.27 434.877V434.877C1388.27 409.112 1409.16 388.225 1434.93 388.225H1474.91C1527.34 388.225 1564.66 400.665 1586.88 425.547C1609.1 449.54 1620.2 491.305 1620.2 550.843V856.086C1620.2 890.743 1626.87 913.847 1640.2 925.399C1641.29 926.216 1642.44 927.002 1643.65 927.757C1678.05 949.12 1714.84 974.217 1714.84 1014.71V1014.71Z" fill="white"/>
<path d="M1160.69 1481.23C1115.37 1481.23 1080.71 1466.57 1056.72 1437.25C1032.73 1407.92 1020.73 1369.27 1020.73 1321.28V914.736H894.102V814.765H1020.73V654.812H1134.03V814.765H1328.64V914.736H1134.03V1327.95C1134.03 1347.5 1138.92 1361.27 1148.69 1369.27C1158.47 1377.27 1173.57 1381.26 1194.01 1381.26H1328.64V1481.23H1160.69Z" fill="white"/>
<path d="M667.45 548.177V668.141H540.821V548.177H667.45ZM457.185 914.735V814.765H660.785V1381.26H765.085V1481.23H547.486V914.735H457.185Z" fill="white"/>
<path d="M1702.11 456.336L1779.2 383.035C1793.24 369.835 1804.19 359.023 1812.06 350.598C1820.2 341.891 1825.96 334.028 1829.33 327.006C1832.98 319.985 1834.81 312.543 1834.81 304.679C1834.81 295.13 1832.28 287.828 1827.22 282.773C1822.17 277.437 1814.59 274.769 1804.47 274.769C1798.3 274.769 1792.82 276.454 1788.05 279.824C1783.27 282.914 1779.48 287.688 1776.67 294.147C1773.86 300.326 1772.32 308.19 1772.04 317.739H1701.26C1701.83 293.024 1707.02 272.944 1716.85 257.497C1726.68 242.051 1739.6 230.676 1755.61 223.374C1771.62 215.791 1789.17 212 1808.27 212C1831.86 212 1851.1 216.072 1865.98 224.217C1880.86 232.361 1891.82 243.174 1898.84 256.655C1905.86 270.135 1909.37 284.88 1909.37 300.888C1909.37 313.526 1907.4 325.181 1903.47 335.853C1899.82 346.244 1893.36 357.197 1884.09 368.712C1874.83 379.946 1861.77 393.286 1844.92 408.733L1801.53 448.332H1914.43V509.837H1702.11V456.336Z" fill="white"/>
<path d="M0 1014.71C0 974.217 37.6042 950.144 70.9376 927.161C71.7646 926.591 72.556 926.003 73.3116 925.399C87.5297 913.847 94.6387 890.743 94.6387 856.086V550.843C94.6387 491.305 105.746 449.54 127.962 425.547C150.178 400.665 187.5 388.225 239.929 388.225H279.917C305.683 388.225 326.57 409.112 326.57 434.877V434.877C326.57 460.643 305.683 481.53 279.917 481.53H258.59C237.263 481.53 221.712 485.085 211.937 492.194C203.051 498.414 198.608 511.299 198.608 530.849V856.086C198.608 900.517 187.5 936.951 165.284 965.387C165.074 965.667 164.864 965.946 164.653 966.224C155.286 978.552 155.995 1051.64 165.284 1064.02V1064.02C187.5 1092.46 198.608 1128.89 198.608 1173.33V1498.56C198.608 1518.11 203.051 1531 211.937 1537.22C221.712 1544.33 237.263 1547.88 258.59 1547.88H279.917C305.683 1547.88 326.57 1568.77 326.57 1594.53V1594.53C326.57 1620.3 305.683 1641.19 279.917 1641.19H239.929C187.5 1641.19 150.178 1628.75 127.962 1603.86C105.746 1579.87 94.6387 1538.11 94.6387 1478.57V1173.33C94.6387 1138.67 87.5297 1116.01 73.3116 1105.35C72.4602 1104.61 71.5635 1103.89 70.6215 1103.2C37.9698 1079.26 0 1055.19 0 1014.71V1014.71Z" fill="white"/>
</svg>
